# MagicaVoxel @ Ephtracy

# group
o 

# material
mtllib bird-0.mtl
usemtl palette

# normals
vn -1 0 0
vn 1 0 0
vn 0 0 1
vn 0 0 -1
vn 0 -1 0
vn 0 1 0

# texcoords
vt 0.962891 0.5
vt 0.970703 0.5
vt 0.990234 0.5
vt 0.994141 0.5

# verts
v 0.8 0 1.7
v 0.8 0 1.4
v 0.8 0.1 1.7
v 0.8 0.1 1.4
v 0.9 0 1.9
v 0.9 0 1.7
v 0.9 0.1 1.9
v 0.9 0.1 1.7
v 1 0 2.2
v 1 0 1.9
v 1 0.1 2.2
v 1 0.1 1.9
v 1.1 0 2.4
v 1.1 0 2.2
v 1.1 0.1 2.4
v 1.1 0.1 2.2
v 1.3 0 2.4
v 1.3 0 1.4
v 1.3 0.1 2.4
v 1.3 0.1 1.4
v 1.1 0 2.4
v 1.1 0.1 2.4
v 1.2 0 2.4
v 1.2 0.1 2.4
v 1.3 0 2.4
v 1.3 0.1 2.4
v 1 0 2.2
v 1 0.1 2.2
v 1.1 0 2.2
v 1.1 0.1 2.2
v 0.9 0 1.9
v 0.9 0.1 1.9
v 1 0 1.9
v 1 0.1 1.9
v 0.8 0 1.7
v 0.8 0.1 1.7
v 0.9 0 1.7
v 0.9 0.1 1.7
v 0.8 0 1.4
v 0.8 0.1 1.4
v 0.9 0 1.4
v 0.9 0.1 1.4
v 1 0 1.4
v 1 0.1 1.4
v 1.1 0 1.4
v 1.1 0.1 1.4
v 1.2 0 1.4
v 1.2 0.1 1.4
v 1.3 0 1.4
v 1.3 0.1 1.4
v 1.1 0 2.4
v 1.2 0 2.4
v 1.3 0 2.4
v 1 0 2.2
v 1.1 0 2.2
v 0.9 0 1.9
v 1 0 1.9
v 0.8 0 1.7
v 0.9 0 1.7
v 0.8 0 1.4
v 0.9 0 1.4
v 1 0 1.4
v 1.1 0 1.4
v 1.2 0 1.4
v 1.3 0 1.4
v 1.1 0.1 2.4
v 1.2 0.1 2.4
v 1.3 0.1 2.4
v 1 0.1 2.2
v 1.1 0.1 2.2
v 0.9 0.1 1.9
v 1 0.1 1.9
v 0.8 0.1 1.7
v 0.9 0.1 1.7
v 0.8 0.1 1.4
v 0.9 0.1 1.4
v 1 0.1 1.4
v 1.1 0.1 1.4
v 1.2 0.1 1.4
v 1.3 0.1 1.4

# faces
f 3/1/1 2/1/1 1/1/1
f 4/1/1 2/1/1 3/1/1
f 7/3/1 6/3/1 5/3/1
f 8/3/1 6/3/1 7/3/1
f 11/1/1 10/1/1 9/1/1
f 12/1/1 10/1/1 11/1/1
f 15/4/1 14/4/1 13/4/1
f 16/4/1 14/4/1 15/4/1
f 17/2/2 18/2/2 19/2/2
f 19/2/2 18/2/2 20/2/2
f 23/4/3 22/4/3 21/4/3
f 24/4/3 22/4/3 23/4/3
f 25/2/3 24/2/3 23/2/3
f 26/2/3 24/2/3 25/2/3
f 29/1/3 28/1/3 27/1/3
f 30/1/3 28/1/3 29/1/3
f 33/3/3 32/3/3 31/3/3
f 34/3/3 32/3/3 33/3/3
f 37/1/3 36/1/3 35/1/3
f 38/1/3 36/1/3 37/1/3
f 39/1/4 40/1/4 41/1/4
f 41/1/4 40/1/4 42/1/4
f 41/3/4 42/3/4 43/3/4
f 43/3/4 42/3/4 44/3/4
f 43/1/4 44/1/4 45/1/4
f 45/1/4 44/1/4 46/1/4
f 45/4/4 46/4/4 47/4/4
f 47/4/4 46/4/4 48/4/4
f 47/2/4 48/2/4 49/2/4
f 49/2/4 48/2/4 50/2/4
f 55/4/5 52/4/5 51/4/5
f 57/1/5 55/1/5 54/1/5
f 59/3/5 57/3/5 56/3/5
f 60/1/5 59/1/5 58/1/5
f 61/3/5 57/3/5 59/3/5
f 61/1/5 59/1/5 60/1/5
f 62/1/5 55/1/5 57/1/5
f 62/3/5 57/3/5 61/3/5
f 63/4/5 52/4/5 55/4/5
f 63/1/5 55/1/5 62/1/5
f 64/2/5 53/2/5 52/2/5
f 64/4/5 52/4/5 63/4/5
f 65/2/5 53/2/5 64/2/5
f 66/4/6 67/4/6 70/4/6
f 69/1/6 70/1/6 72/1/6
f 71/3/6 72/3/6 74/3/6
f 73/1/6 74/1/6 75/1/6
f 74/3/6 72/3/6 76/3/6
f 75/1/6 74/1/6 76/1/6
f 72/1/6 70/1/6 77/1/6
f 76/3/6 72/3/6 77/3/6
f 70/4/6 67/4/6 78/4/6
f 77/1/6 70/1/6 78/1/6
f 67/2/6 68/2/6 79/2/6
f 78/4/6 67/4/6 79/4/6
f 79/2/6 68/2/6 80/2/6
