# MagicaVoxel @ Ephtracy

# group
o 

# material
mtllib bird-1.mtl
usemtl palette

# normals
vn -1 0 0
vn 1 0 0
vn 0 0 1
vn 0 0 -1
vn 0 -1 0
vn 0 1 0

# texcoords
vt 0.0214844 0.5
vt 0.958984 0.5
vt 0.966797 0.5
vt 0.982422 0.5
vt 0.990234 0.5
vt 0.994141 0.5

# verts
v -1 1.2 0.1
v -1 1.2 0
v -1 1.3 0.1
v -1 1.3 0
v -0.9 1.1 0.1
v -0.9 1.1 0
v -0.9 1.2 0.2
v -0.9 1.2 0.1
v -0.9 1.2 0
v -0.9 1.2 -0.1
v -0.9 1.3 0.2
v -0.9 1.3 0.1
v -0.9 1.3 0
v -0.9 1.3 -0.1
v -0.9 1.4 0.1
v -0.9 1.4 0
v -0.8 1.1 0.2
v -0.8 1.1 0.1
v -0.8 1.1 0
v -0.8 1.1 -0.1
v -0.8 1.2 0.2
v -0.8 1.2 0.1
v -0.8 1.2 0
v -0.8 1.2 -0.1
v -0.8 1.3 0.2
v -0.8 1.3 0.1
v -0.8 1.3 0
v -0.8 1.3 -0.1
v -0.8 1.4 0.2
v -0.8 1.4 0.1
v -0.8 1.4 0
v -0.8 1.4 -0.1
v -0.6 1 0.1
v -0.6 1 0
v -0.6 1.1 0.1
v -0.6 1.1 0
v -0.5 1 0.2
v -0.5 1 0.1
v -0.5 1 0
v -0.5 1 -0.1
v -0.5 1.1 0.2
v -0.5 1.1 0.1
v -0.5 1.1 0
v -0.5 1.1 -0.1
v -0.4 0.9 0.2
v -0.4 0.9 -0.1
v -0.4 1 0.2
v -0.4 1 -0.1
v -0.3 0.6 0.2
v -0.3 0.6 0.1
v -0.3 0.6 0
v -0.3 0.6 -0.1
v -0.3 0.7 0.2
v -0.3 0.7 0.1
v -0.3 0.7 0
v -0.3 0.7 -0.1
v -0.2 0.7 0.2
v -0.2 0.7 0.1
v -0.2 0.7 0
v -0.2 0.7 -0.1
v -0.2 0.9 0.2
v -0.2 0.9 0.1
v -0.2 0.9 0
v -0.2 0.9 -0.1
v -0.6 1.3 0.2
v -0.6 1.3 0.1
v -0.6 1.3 0
v -0.6 1.3 -0.1
v -0.6 1.4 0.2
v -0.6 1.4 0.1
v -0.6 1.4 0
v -0.6 1.4 -0.1
v -0.1 0.6 0.2
v -0.1 0.6 0.1
v -0.1 0.6 0
v -0.1 0.6 -0.1
v -0.1 0.8 0.2
v -0.1 0.8 0.1
v -0.1 0.8 0
v -0.1 0.8 -0.1
v 0 0.8 0.2
v 0 0.8 0.1
v 0 0.8 0
v 0 0.8 -0.1
v 0 0.9 0.2
v 0 0.9 0.1
v 0 0.9 0
v 0 0.9 -0.1
v 0.2 0.9 0.2
v 0.2 0.9 -0.1
v 0.2 1 0.2
v 0.2 1 0.1
v 0.2 1 0
v 0.2 1 -0.1
v 0.3 1 0.2
v 0.3 1 0.1
v 0.3 1 0
v 0.3 1 -0.1
v 0.3 1.1 0.2
v 0.3 1.1 0.1
v 0.3 1.1 0
v 0.3 1.1 -0.1
v 0.4 1 0.1
v 0.4 1 0
v 0.4 1.1 0.1
v 0.4 1.1 0
v 0.5 1.1 0.2
v 0.5 1.1 0.1
v 0.5 1.1 0
v 0.5 1.1 -0.1
v 0.5 1.2 0.2
v 0.5 1.2 0.1
v 0.5 1.2 0
v 0.5 1.2 -0.1
v 0.6 1.1 0.1
v 0.6 1.1 0
v 0.6 1.2 0.2
v 0.6 1.2 0.1
v 0.6 1.2 0
v 0.6 1.2 -0.1
v 0.6 1.3 0.2
v 0.6 1.3 0.1
v 0.6 1.3 0
v 0.6 1.3 -0.1
v 1.2 1.2 0.1
v 1.2 1.2 0
v 1.2 1.3 0.1
v 1.2 1.3 0
v -0.9 1.2 0.2
v -0.9 1.3 0.2
v -0.8 1.1 0.2
v -0.8 1.2 0.2
v -0.8 1.3 0.2
v -0.8 1.4 0.2
v -0.7 1.2 0.2
v -0.7 1.3 0.2
v -0.7 1.4 0.2
v -0.6 1.3 0.2
v -0.6 1.4 0.2
v -0.5 1 0.2
v -0.5 1.1 0.2
v -0.5 1.3 0.2
v -0.4 0.9 0.2
v -0.4 1 0.2
v -0.3 0.6 0.2
v -0.3 0.7 0.2
v -0.2 0.7 0.2
v -0.2 0.9 0.2
v -0.1 0.6 0.2
v -0.1 0.8 0.2
v -0.1 0.9 0.2
v 0 0.8 0.2
v 0 0.9 0.2
v 0 1 0.2
v 0 1.1 0.2
v 0.2 0.9 0.2
v 0.2 1 0.2
v 0.2 1.1 0.2
v 0.3 1 0.2
v 0.3 1.1 0.2
v 0.3 1.2 0.2
v 0.4 1.2 0.2
v 0.4 1.3 0.2
v 0.5 1.1 0.2
v 0.5 1.2 0.2
v 0.6 1.2 0.2
v 0.6 1.3 0.2
v -1 1.2 0.1
v -1 1.3 0.1
v -0.9 1.1 0.1
v -0.9 1.2 0.1
v -0.9 1.3 0.1
v -0.9 1.4 0.1
v -0.8 1.1 0.1
v -0.8 1.2 0.1
v -0.8 1.3 0.1
v -0.8 1.4 0.1
v -0.6 1 0.1
v -0.6 1.1 0.1
v -0.5 1 0.1
v -0.5 1.1 0.1
v 0.3 1 0.1
v 0.3 1.1 0.1
v 0.4 1 0.1
v 0.4 1.1 0.1
v 0.5 1.1 0.1
v 0.5 1.2 0.1
v 0.6 1.1 0.1
v 0.6 1.2 0.1
v 0.6 1.3 0.1
v 1.2 1.2 0.1
v 1.2 1.3 0.1
v -0.3 0.6 0
v -0.3 0.7 0
v -0.2 0.7 0
v -0.2 0.9 0
v -0.1 0.6 0
v -0.1 0.8 0
v -0.1 0.9 0
v 0 0.8 0
v 0 0.9 0
v -0.3 0.6 0.1
v -0.3 0.7 0.1
v -0.2 0.7 0.1
v -0.2 0.9 0.1
v -0.1 0.6 0.1
v -0.1 0.8 0.1
v -0.1 0.9 0.1
v 0 0.8 0.1
v 0 0.9 0.1
v -1 1.2 0
v -1 1.3 0
v -0.9 1.1 0
v -0.9 1.2 0
v -0.9 1.3 0
v -0.9 1.4 0
v -0.8 1.1 0
v -0.8 1.2 0
v -0.8 1.3 0
v -0.8 1.4 0
v -0.6 1 0
v -0.6 1.1 0
v -0.5 1 0
v -0.5 1.1 0
v 0.3 1 0
v 0.3 1.1 0
v 0.4 1 0
v 0.4 1.1 0
v 0.5 1.1 0
v 0.5 1.2 0
v 0.6 1.1 0
v 0.6 1.2 0
v 0.6 1.3 0
v 1.2 1.2 0
v 1.2 1.3 0
v -0.9 1.2 -0.1
v -0.9 1.3 -0.1
v -0.8 1.1 -0.1
v -0.8 1.2 -0.1
v -0.8 1.3 -0.1
v -0.8 1.4 -0.1
v -0.7 1.2 -0.1
v -0.7 1.3 -0.1
v -0.7 1.4 -0.1
v -0.6 1.3 -0.1
v -0.6 1.4 -0.1
v -0.5 1 -0.1
v -0.5 1.1 -0.1
v -0.5 1.3 -0.1
v -0.4 0.9 -0.1
v -0.4 1 -0.1
v -0.3 0.6 -0.1
v -0.3 0.7 -0.1
v -0.2 0.7 -0.1
v -0.2 0.9 -0.1
v -0.1 0.6 -0.1
v -0.1 0.8 -0.1
v -0.1 0.9 -0.1
v 0 0.8 -0.1
v 0 0.9 -0.1
v 0 1 -0.1
v 0 1.1 -0.1
v 0.2 0.9 -0.1
v 0.2 1 -0.1
v 0.2 1.1 -0.1
v 0.3 1 -0.1
v 0.3 1.1 -0.1
v 0.3 1.2 -0.1
v 0.4 1.2 -0.1
v 0.4 1.3 -0.1
v 0.5 1.1 -0.1
v 0.5 1.2 -0.1
v 0.6 1.2 -0.1
v 0.6 1.3 -0.1
v -0.3 0.6 0.2
v -0.1 0.6 0.2
v -0.3 0.6 0.1
v -0.1 0.6 0.1
v -0.3 0.6 0
v -0.1 0.6 0
v -0.3 0.6 -0.1
v -0.1 0.6 -0.1
v -0.1 0.8 0.2
v 0 0.8 0.2
v -0.1 0.8 0.1
v 0 0.8 0.1
v -0.1 0.8 0
v 0 0.8 0
v -0.1 0.8 -0.1
v 0 0.8 -0.1
v -0.4 0.9 0.2
v -0.2 0.9 0.2
v 0 0.9 0.2
v 0.2 0.9 0.2
v -0.2 0.9 0.1
v -0.1 0.9 0.1
v 0 0.9 0.1
v -0.2 0.9 0
v -0.1 0.9 0
v 0 0.9 0
v -0.4 0.9 -0.1
v -0.2 0.9 -0.1
v 0 0.9 -0.1
v 0.2 0.9 -0.1
v -0.5 1 0.2
v -0.4 1 0.2
v 0.2 1 0.2
v 0.3 1 0.2
v -0.6 1 0.1
v -0.5 1 0.1
v 0.2 1 0.1
v 0.3 1 0.1
v 0.4 1 0.1
v -0.6 1 0
v -0.5 1 0
v 0.2 1 0
v 0.3 1 0
v 0.4 1 0
v -0.5 1 -0.1
v -0.4 1 -0.1
v 0.2 1 -0.1
v 0.3 1 -0.1
v -0.8 1.1 0.2
v -0.5 1.1 0.2
v 0.3 1.1 0.2
v 0.5 1.1 0.2
v -0.9 1.1 0.1
v -0.8 1.1 0.1
v -0.6 1.1 0.1
v -0.5 1.1 0.1
v 0.3 1.1 0.1
v 0.4 1.1 0.1
v 0.5 1.1 0.1
v 0.6 1.1 0.1
v -0.9 1.1 0
v -0.8 1.1 0
v -0.6 1.1 0
v -0.5 1.1 0
v 0.3 1.1 0
v 0.4 1.1 0
v 0.5 1.1 0
v 0.6 1.1 0
v -0.8 1.1 -0.1
v -0.5 1.1 -0.1
v 0.3 1.1 -0.1
v 0.5 1.1 -0.1
v -0.9 1.2 0.2
v -0.8 1.2 0.2
v 0.5 1.2 0.2
v 0.6 1.2 0.2
v -1 1.2 0.1
v -0.9 1.2 0.1
v -0.8 1.2 0.1
v 0.5 1.2 0.1
v 0.6 1.2 0.1
v 1.2 1.2 0.1
v -1 1.2 0
v -0.9 1.2 0
v -0.8 1.2 0
v 0.5 1.2 0
v 0.6 1.2 0
v 1.2 1.2 0
v -0.9 1.2 -0.1
v -0.8 1.2 -0.1
v 0.5 1.2 -0.1
v 0.6 1.2 -0.1
v -0.3 0.7 0.2
v -0.2 0.7 0.2
v -0.3 0.7 0.1
v -0.2 0.7 0.1
v -0.3 0.7 0
v -0.2 0.7 0
v -0.3 0.7 -0.1
v -0.2 0.7 -0.1
v -0.9 1.3 0.2
v -0.8 1.3 0.2
v -0.6 1.3 0.2
v -0.5 1.3 0.2
v 0.4 1.3 0.2
v 0.6 1.3 0.2
v -1 1.3 0.1
v -0.9 1.3 0.1
v -0.8 1.3 0.1
v -0.6 1.3 0.1
v 0.6 1.3 0.1
v 1.2 1.3 0.1
v -1 1.3 0
v -0.9 1.3 0
v -0.8 1.3 0
v -0.6 1.3 0
v 0.6 1.3 0
v 1.2 1.3 0
v -0.9 1.3 -0.1
v -0.8 1.3 -0.1
v -0.6 1.3 -0.1
v -0.5 1.3 -0.1
v 0.4 1.3 -0.1
v 0.6 1.3 -0.1
v -0.8 1.4 0.2
v -0.7 1.4 0.2
v -0.6 1.4 0.2
v -0.9 1.4 0.1
v -0.8 1.4 0.1
v -0.7 1.4 0.1
v -0.6 1.4 0.1
v -0.9 1.4 0
v -0.8 1.4 0
v -0.7 1.4 0
v -0.6 1.4 0
v -0.8 1.4 -0.1
v -0.7 1.4 -0.1
v -0.6 1.4 -0.1

# faces
f 3/6/1 2/6/1 1/6/1
f 4/6/1 2/6/1 3/6/1
f 8/6/1 6/6/1 5/6/1
f 9/6/1 6/6/1 8/6/1
f 11/2/1 8/2/1 7/2/1
f 12/2/1 8/2/1 11/2/1
f 13/2/1 10/2/1 9/2/1
f 14/2/1 10/2/1 13/2/1
f 15/6/1 13/6/1 12/6/1
f 16/6/1 13/6/1 15/6/1
f 21/6/1 18/6/1 17/6/1
f 22/6/1 18/6/1 21/6/1
f 23/6/1 20/6/1 19/6/1
f 24/6/1 20/6/1 23/6/1
f 29/3/1 26/3/1 25/3/1
f 30/3/1 26/3/1 29/3/1
f 31/3/1 28/3/1 27/3/1
f 32/3/1 28/3/1 31/3/1
f 35/6/1 34/6/1 33/6/1
f 36/6/1 34/6/1 35/6/1
f 41/1/1 38/1/1 37/1/1
f 42/1/1 38/1/1 41/1/1
f 43/1/1 40/1/1 39/1/1
f 44/1/1 40/1/1 43/1/1
f 47/1/1 46/1/1 45/1/1
f 48/1/1 46/1/1 47/1/1
f 53/6/1 50/6/1 49/6/1
f 54/6/1 50/6/1 53/6/1
f 55/6/1 52/6/1 51/6/1
f 56/6/1 52/6/1 55/6/1
f 61/6/1 58/6/1 57/6/1
f 62/6/1 58/6/1 61/6/1
f 63/6/1 60/6/1 59/6/1
f 64/6/1 60/6/1 63/6/1
f 65/2/2 66/2/2 69/2/2
f 66/6/2 67/6/2 70/6/2
f 69/2/2 66/2/2 70/2/2
f 67/2/2 68/2/2 71/2/2
f 70/6/2 67/6/2 71/6/2
f 71/2/2 68/2/2 72/2/2
f 73/6/2 74/6/2 77/6/2
f 77/6/2 74/6/2 78/6/2
f 75/6/2 76/6/2 79/6/2
f 79/6/2 76/6/2 80/6/2
f 81/1/2 82/1/2 85/1/2
f 85/1/2 82/1/2 86/1/2
f 83/1/2 84/1/2 87/1/2
f 87/1/2 84/1/2 88/1/2
f 89/1/2 90/1/2 91/1/2
f 91/1/2 90/1/2 92/1/2
f 92/1/2 90/1/2 93/1/2
f 93/1/2 90/1/2 94/1/2
f 95/4/2 96/4/2 99/4/2
f 99/4/2 96/4/2 100/4/2
f 97/4/2 98/4/2 101/4/2
f 101/4/2 98/4/2 102/4/2
f 103/4/2 104/4/2 105/4/2
f 105/4/2 104/4/2 106/4/2
f 107/4/2 108/4/2 111/4/2
f 111/4/2 108/4/2 112/4/2
f 109/4/2 110/4/2 113/4/2
f 113/4/2 110/4/2 114/4/2
f 115/4/2 116/4/2 118/4/2
f 118/4/2 116/4/2 119/4/2
f 117/6/2 118/6/2 121/6/2
f 121/6/2 118/6/2 122/6/2
f 119/6/2 120/6/2 123/6/2
f 123/6/2 120/6/2 124/6/2
f 125/6/2 126/6/2 127/6/2
f 127/6/2 126/6/2 128/6/2
f 132/2/3 130/2/3 129/2/3
f 133/2/3 130/2/3 132/2/3
f 135/6/3 132/6/3 131/6/3
f 135/2/3 133/2/3 132/2/3
f 136/3/3 134/3/3 133/3/3
f 136/2/3 133/2/3 135/2/3
f 137/3/3 134/3/3 136/3/3
f 138/6/3 136/6/3 135/6/3
f 138/2/3 137/2/3 136/2/3
f 139/2/3 137/2/3 138/2/3
f 141/6/3 135/6/3 131/6/3
f 141/6/3 138/6/3 135/6/3
f 142/6/3 138/6/3 141/6/3
f 144/1/3 141/1/3 140/1/3
f 147/6/3 146/6/3 145/6/3
f 148/1/3 144/1/3 143/1/3
f 149/6/3 147/6/3 145/6/3
f 149/6/3 148/6/3 147/6/3
f 150/6/3 148/6/3 149/6/3
f 151/1/3 144/1/3 148/1/3
f 151/6/3 148/6/3 150/6/3
f 152/1/3 151/1/3 150/1/3
f 153/1/3 144/1/3 151/1/3
f 153/1/3 151/1/3 152/1/3
f 154/1/3 141/1/3 144/1/3
f 154/1/3 144/1/3 153/1/3
f 155/5/3 142/5/3 141/5/3
f 155/1/3 141/1/3 154/1/3
f 156/1/3 154/1/3 153/1/3
f 157/5/3 155/5/3 154/5/3
f 157/1/3 154/1/3 156/1/3
f 158/5/3 142/5/3 155/5/3
f 158/5/3 155/5/3 157/5/3
f 159/4/3 158/4/3 157/4/3
f 160/5/3 142/5/3 158/5/3
f 160/4/3 158/4/3 159/4/3
f 161/5/3 142/5/3 160/5/3
f 162/5/3 142/5/3 161/5/3
f 162/4/3 161/4/3 160/4/3
f 163/5/3 142/5/3 162/5/3
f 164/4/3 162/4/3 160/4/3
f 165/6/3 163/6/3 162/6/3
f 165/4/3 162/4/3 164/4/3
f 166/6/3 163/6/3 165/6/3
f 167/6/3 163/6/3 166/6/3
f 171/6/3 169/6/3 168/6/3
f 172/6/3 169/6/3 171/6/3
f 174/6/3 171/6/3 170/6/3
f 175/6/3 171/6/3 174/6/3
f 176/6/3 173/6/3 172/6/3
f 177/6/3 173/6/3 176/6/3
f 180/6/3 179/6/3 178/6/3
f 181/6/3 179/6/3 180/6/3
f 184/4/3 183/4/3 182/4/3
f 185/4/3 183/4/3 184/4/3
f 188/4/3 187/4/3 186/4/3
f 189/4/3 187/4/3 188/4/3
f 191/6/3 190/6/3 189/6/3
f 192/6/3 190/6/3 191/6/3
f 195/6/3 194/6/3 193/6/3
f 197/6/3 195/6/3 193/6/3
f 197/6/3 196/6/3 195/6/3
f 198/6/3 196/6/3 197/6/3
f 199/6/3 196/6/3 198/6/3
f 200/1/3 199/1/3 198/1/3
f 201/1/3 199/1/3 200/1/3
f 202/6/4 203/6/4 204/6/4
f 202/6/4 204/6/4 206/6/4
f 204/6/4 205/6/4 206/6/4
f 206/6/4 205/6/4 207/6/4
f 207/6/4 205/6/4 208/6/4
f 207/1/4 208/1/4 209/1/4
f 209/1/4 208/1/4 210/1/4
f 211/6/4 212/6/4 214/6/4
f 214/6/4 212/6/4 215/6/4
f 213/6/4 214/6/4 217/6/4
f 217/6/4 214/6/4 218/6/4
f 215/6/4 216/6/4 219/6/4
f 219/6/4 216/6/4 220/6/4
f 221/6/4 222/6/4 223/6/4
f 223/6/4 222/6/4 224/6/4
f 225/4/4 226/4/4 227/4/4
f 227/4/4 226/4/4 228/4/4
f 229/4/4 230/4/4 231/4/4
f 231/4/4 230/4/4 232/4/4
f 232/6/4 233/6/4 234/6/4
f 234/6/4 233/6/4 235/6/4
f 236/2/4 237/2/4 239/2/4
f 239/2/4 237/2/4 240/2/4
f 238/6/4 239/6/4 242/6/4
f 239/2/4 240/2/4 242/2/4
f 240/3/4 241/3/4 243/3/4
f 242/2/4 240/2/4 243/2/4
f 243/3/4 241/3/4 244/3/4
f 242/6/4 243/6/4 245/6/4
f 243/2/4 244/2/4 245/2/4
f 245/2/4 244/2/4 246/2/4
f 238/6/4 242/6/4 248/6/4
f 242/6/4 245/6/4 248/6/4
f 248/6/4 245/6/4 249/6/4
f 247/1/4 248/1/4 251/1/4
f 252/6/4 253/6/4 254/6/4
f 250/1/4 251/1/4 255/1/4
f 252/6/4 254/6/4 256/6/4
f 254/6/4 255/6/4 256/6/4
f 256/6/4 255/6/4 257/6/4
f 255/1/4 251/1/4 258/1/4
f 257/6/4 255/6/4 258/6/4
f 257/1/4 258/1/4 259/1/4
f 258/1/4 251/1/4 260/1/4
f 259/1/4 258/1/4 260/1/4
f 251/1/4 248/1/4 261/1/4
f 260/1/4 251/1/4 261/1/4
f 248/5/4 249/5/4 262/5/4
f 261/1/4 248/1/4 262/1/4
f 260/1/4 261/1/4 263/1/4
f 261/5/4 262/5/4 264/5/4
f 263/1/4 261/1/4 264/1/4
f 262/5/4 249/5/4 265/5/4
f 264/5/4 262/5/4 265/5/4
f 264/4/4 265/4/4 266/4/4
f 265/5/4 249/5/4 267/5/4
f 266/4/4 265/4/4 267/4/4
f 267/5/4 249/5/4 268/5/4
f 268/5/4 249/5/4 269/5/4
f 267/4/4 268/4/4 269/4/4
f 269/5/4 249/5/4 270/5/4
f 267/4/4 269/4/4 271/4/4
f 269/6/4 270/6/4 272/6/4
f 271/4/4 269/4/4 272/4/4
f 272/6/4 270/6/4 273/6/4
f 273/6/4 270/6/4 274/6/4
f 277/6/5 276/6/5 275/6/5
f 278/6/5 276/6/5 277/6/5
f 281/6/5 280/6/5 279/6/5
f 282/6/5 280/6/5 281/6/5
f 285/1/5 284/1/5 283/1/5
f 286/1/5 284/1/5 285/1/5
f 289/1/5 288/1/5 287/1/5
f 290/1/5 288/1/5 289/1/5
f 295/1/5 292/1/5 291/1/5
f 297/1/5 294/1/5 293/1/5
f 298/1/5 296/1/5 295/1/5
f 298/1/5 297/1/5 296/1/5
f 298/1/5 295/1/5 291/1/5
f 299/1/5 297/1/5 298/1/5
f 300/1/5 294/1/5 297/1/5
f 300/1/5 297/1/5 299/1/5
f 301/1/5 298/1/5 291/1/5
f 302/1/5 298/1/5 301/1/5
f 303/1/5 294/1/5 300/1/5
f 304/1/5 294/1/5 303/1/5
f 310/1/5 306/1/5 305/1/5
f 311/4/5 308/4/5 307/4/5
f 312/4/5 308/4/5 311/4/5
f 314/6/5 310/6/5 309/6/5
f 315/1/5 306/1/5 310/1/5
f 315/6/5 310/6/5 314/6/5
f 316/1/5 312/1/5 311/1/5
f 317/4/5 313/4/5 312/4/5
f 317/1/5 312/1/5 316/1/5
f 318/4/5 313/4/5 317/4/5
f 319/1/5 306/1/5 315/1/5
f 320/1/5 306/1/5 319/1/5
f 321/4/5 317/4/5 316/4/5
f 322/4/5 317/4/5 321/4/5
f 328/6/5 324/6/5 323/6/5
f 329/6/5 324/6/5 328/6/5
f 330/6/5 324/6/5 329/6/5
f 331/4/5 326/4/5 325/4/5
f 332/4/5 326/4/5 331/4/5
f 333/4/5 326/4/5 332/4/5
f 335/6/5 328/6/5 327/6/5
f 335/6/5 329/6/5 328/6/5
f 336/6/5 329/6/5 335/6/5
f 337/6/5 329/6/5 336/6/5
f 340/4/5 334/4/5 333/4/5
f 340/4/5 333/4/5 332/4/5
f 341/4/5 334/4/5 340/4/5
f 342/4/5 334/4/5 341/4/5
f 343/6/5 338/6/5 337/6/5
f 343/6/5 337/6/5 336/6/5
f 344/6/5 338/6/5 343/6/5
f 345/4/5 341/4/5 340/4/5
f 345/4/5 340/4/5 339/4/5
f 346/4/5 341/4/5 345/4/5
f 352/2/5 348/2/5 347/2/5
f 353/2/5 348/2/5 352/2/5
f 354/6/5 350/6/5 349/6/5
f 355/6/5 350/6/5 354/6/5
f 357/6/5 352/6/5 351/6/5
f 358/6/5 352/6/5 357/6/5
f 361/6/5 356/6/5 355/6/5
f 362/6/5 356/6/5 361/6/5
f 363/2/5 359/2/5 358/2/5
f 364/2/5 359/2/5 363/2/5
f 365/6/5 361/6/5 360/6/5
f 366/6/5 361/6/5 365/6/5
f 367/6/6 368/6/6 369/6/6
f 369/6/6 368/6/6 370/6/6
f 371/6/6 372/6/6 373/6/6
f 373/6/6 372/6/6 374/6/6
f 375/2/6 376/2/6 382/2/6
f 382/2/6 376/2/6 383/2/6
f 377/6/6 378/6/6 384/6/6
f 379/6/6 380/6/6 385/6/6
f 381/6/6 382/6/6 387/6/6
f 387/6/6 382/6/6 388/6/6
f 384/6/6 378/6/6 390/6/6
f 385/6/6 386/6/6 391/6/6
f 379/6/6 385/6/6 391/6/6
f 391/6/6 386/6/6 392/6/6
f 388/2/6 389/2/6 393/2/6
f 393/2/6 389/2/6 394/2/6
f 390/6/6 378/6/6 395/6/6
f 378/5/6 379/5/6 396/5/6
f 395/6/6 378/6/6 396/6/6
f 379/6/6 391/6/6 397/6/6
f 396/5/6 379/5/6 397/5/6
f 397/6/6 391/6/6 398/6/6
f 399/3/6 400/3/6 403/3/6
f 400/2/6 401/2/6 404/2/6
f 403/3/6 400/3/6 404/3/6
f 404/2/6 401/2/6 405/2/6
f 402/6/6 403/6/6 406/6/6
f 403/6/6 404/6/6 406/6/6
f 404/6/6 405/6/6 406/6/6
f 406/6/6 405/6/6 407/6/6
f 407/6/6 405/6/6 408/6/6
f 408/6/6 405/6/6 409/6/6
f 407/3/6 408/3/6 410/3/6
f 408/2/6 409/2/6 411/2/6
f 410/3/6 408/3/6 411/3/6
f 411/2/6 409/2/6 412/2/6
